<svg id="Line" xmlns="http://www.w3.org/2000/svg" viewBox="0 0 418.96 384.53"><title>Line</title><path d="M247.85,448.27C141.78,448.27,55.49,362,55.49,256v-0.25L60.33,256h5.16v0c0,100.5,81.81,182.26,182.36,182.26a182,182,0,0,0,177-138l9.7,2.42a193.25,193.25,0,0,1-67.35,104.17A190.42,190.42,0,0,1,247.85,448.27Z" transform="translate(-55.49 -63.73)" style="fill:#fff"/><path d="M65.49,256h-10c0-106,86.3-192.25,192.36-192.25A192.2,192.2,0,0,1,434.2,208.13l-9.69,2.48A182.2,182.2,0,0,0,247.85,73.73C147.3,73.73,65.5,155.49,65.49,256Z" transform="translate(-55.49 -63.73)" style="fill:#fff"/><path d="M179.14,262H60.55V252H179.14v10ZM197,214H66.49V204H197v10Z" transform="translate(-55.49 -63.73)" style="fill:#fff"/><path d="M247.85,329.9a74.34,74.34,0,1,1,68.22-103.95l-9.17,4a64.34,64.34,0,1,0,.25,50.66l9.21,3.9A74.24,74.24,0,0,1,247.85,329.9Z" transform="translate(-55.49 -63.73)" style="fill:#fff"/><path d="M247.85,291.05a35.5,35.5,0,1,1,35.5-35.5A35.54,35.54,0,0,1,247.85,291.05Zm0-61a25.5,25.5,0,1,0,25.5,25.5A25.53,25.53,0,0,0,247.85,230.05Z" transform="translate(-55.49 -63.73)" style="fill:#fff"/><path d="M423,306.93H349a51.5,51.5,0,0,1-43.23-79.48,63.49,63.49,0,0,0-10.2-15.09l-7.89-8.42H423A51.5,51.5,0,0,1,423,306.93Zm-113.49-93a71.67,71.67,0,0,1,6.63,12.17l1,2.57-1.64,2.23a41.49,41.49,0,0,0,33.48,66h74a41.5,41.5,0,0,0,0-83H309.46Z" transform="translate(-55.49 -63.73)" style="fill:#fff"/><g id="GO"><path d="M379.49,234L371,242.44q-8.1-8.56-18.88-8.56a21.58,21.58,0,0,0-15.74,6.23A20.41,20.41,0,0,0,330,255.24a20.94,20.94,0,0,0,6.58,15.61,22.39,22.39,0,0,0,16.24,6.4,19.92,19.92,0,0,0,10.59-2.64,18.56,18.56,0,0,0,7-8.26H351.94V255h32l0.09,2.68a31.12,31.12,0,0,1-4.33,15.82,30.22,30.22,0,0,1-11.2,11.41,31.94,31.94,0,0,1-16.13,3.93,35.85,35.85,0,0,1-17.67-4.3,31.47,31.47,0,0,1-12.29-12.26,34.17,34.17,0,0,1-4.52-17.16,31.89,31.89,0,0,1,8.35-22Q336.15,222,352,222a39.3,39.3,0,0,1,15.53,3.07A35.62,35.62,0,0,1,379.49,234Z" transform="translate(-55.49 -63.73)" style="fill:#fff"/><path d="M421.21,222a31.61,31.61,0,0,1,23.22,9.77,32.51,32.51,0,0,1,9.72,23.82,32.14,32.14,0,0,1-9.59,23.56,31.59,31.59,0,0,1-23.27,9.64q-14.33,0-23.81-9.9A33.42,33.42,0,0,1,421.21,222Zm-0.13,11.85A20,20,0,0,0,406.22,240q-6,6.14-6,15.61,0,10.55,7.58,16.69a20.78,20.78,0,0,0,13.51,4.8A19.73,19.73,0,0,0,436,270.89a22.43,22.43,0,0,0,0-30.72A19.92,19.92,0,0,0,421.08,233.88Z" transform="translate(-55.49 -63.73)" style="fill:#fff"/></g></svg>